<svg class="icon" viewBox="0 0 1024 1024" xmlns="http://www.w3.org/2000/svg" width="64" height="64"><defs><style/></defs><path d="M554.644 10.661l385.933 215.355c27.719 14.925 44.776 42.644 44.776 74.627v424.313c0 29.85-17.057 59.702-44.776 74.628l-385.933 213.222c-25.586 14.925-57.57 14.925-83.156 0L83.423 797.45c-27.719-14.925-44.776-42.644-44.776-74.627V298.51c0-29.85 17.057-59.702 44.776-74.628L469.356 10.661c27.718-14.925 57.57-14.925 85.288 0z" fill="#51606A"/><path d="M516.264 78.892c-2.132-2.132-6.396-2.132-8.528 0L121.803 292.115c-2.132 2.132-4.264 4.264-4.264 6.396v426.445c0 2.132 2.132 6.396 4.264 6.396l385.933 215.355c2.132 2.132 6.396 2.132 8.528 0l385.933-215.355c2.132-2.132 4.264-4.264 4.264-6.396V298.51c0-2.132-2.132-6.396-4.264-6.396L516.264 78.892zm38.38-68.23l385.933 215.354c27.719 14.925 44.776 42.644 44.776 74.627v424.313c0 29.85-17.057 59.702-44.776 74.628l-385.933 213.222c-25.586 14.925-57.57 14.925-83.156 0L83.423 797.45c-27.719-14.925-44.776-42.644-44.776-74.627V298.51c0-29.85 17.057-59.702 44.776-74.628L469.356 10.661c27.718-14.925 57.57-14.925 85.288 0z" fill="#C7D4DB"/><path d="M723.09 663.121c-17.058 0-38.38 4.265-55.438 12.794-55.438 25.586-106.61 57.57-151.388 95.95-46.908-38.38-98.082-70.364-151.387-95.95-17.058-8.53-40.513-12.794-55.438-12.794-74.628-2.132-115.14 8.53-157.785 14.926 12.794 6.397 23.455 12.793 36.248 19.19 2.132 0 81.025-6.397 95.95 2.132 14.926 8.529-59.702 12.793-57.57 14.926 14.926 6.396 27.719 10.66 42.645 14.925 2.132 0 70.363-12.793 85.289-4.264 14.925 8.529-44.777 14.925-42.645 17.058 38.38 8.528 74.628 14.925 115.14 17.057 19.19 2.133 44.777 17.058 63.967 29.851-14.926 12.794-29.851 27.72-42.645 42.645-4.264 4.264-6.396 12.793 2.133 17.058 10.66 4.264 19.19-2.133 21.322-4.265 6.396-8.529 12.793-17.058 31.983-31.983 2.132-2.132 6.397-4.265 8.529-8.529 4.264 2.132 6.397 6.397 8.529 8.529 19.19 14.925 25.587 23.454 31.983 31.983 2.132 2.132 10.661 10.661 21.322 4.265 10.662-4.265 6.397-12.794 2.133-17.058-12.794-14.926-27.72-29.851-42.645-42.645 21.322-14.925 46.91-29.85 63.967-29.85 38.38-2.133 76.76-8.53 115.14-17.058 4.264-2.133-57.57-8.53-42.645-17.058 14.926-8.53 83.157 4.264 85.29 4.264 14.925-4.264 27.718-8.529 42.644-14.925 2.132 0-72.496-6.397-57.57-14.926 14.925-8.529 93.818-2.132 95.95-2.132 12.793-6.397 23.454-12.793 36.248-19.19-38.38-6.397-78.893-17.058-149.256-14.926z" fill="#C7D4DB"/><path d="M200.695 614.08V362.478l-49.04 12.793V334.76c31.983-10.661 51.173-21.322 61.834-34.116H254v311.305c0 2.132-53.306 2.132-53.306 2.132zm264.396-21.322c-14.925 17.058-34.115 25.587-59.702 25.587-25.587 0-44.777-8.53-59.702-25.587-12.794-17.058-21.323-38.38-21.323-66.099V390.197c0-27.72 6.397-51.174 19.19-68.231 12.794-17.058 34.116-25.587 59.703-25.587 25.586 0 46.909 8.529 59.702 25.587 12.793 17.057 19.19 38.38 19.19 66.099v136.462c2.132 29.85-4.265 53.305-17.058 68.23zm-59.702-19.19c17.058 0 25.587-14.926 25.587-46.909V379.536c0-4.265 0-6.397-2.133-10.661 0-4.265-2.132-6.397-2.132-10.662-2.132-2.132-2.132-6.396-4.264-8.528l-6.397-6.397c-4.264-2.132-6.397-2.132-10.661-2.132s-8.529 0-12.793 2.132c-4.265 2.132-6.397 4.264-8.53 6.397-2.132 4.264-4.264 6.396-4.264 10.66s-2.132 8.53-2.132 12.794v149.256c2.132 34.115 10.661 51.173 27.719 51.173zm113.008 40.512V575.7l74.627-119.404c2.133-2.133 4.265-6.397 8.53-14.926 4.264-6.397 8.528-12.793 10.66-14.925s4.265-6.397 6.397-12.794 4.265-12.793 6.397-17.058c0-6.396 2.132-10.66 2.132-17.057 0-12.794-2.132-21.323-6.397-27.72-4.264-6.396-10.66-8.528-19.19-8.528-19.19 0-27.719 17.058-27.719 49.041v12.793h-51.173V392.33c0-14.926 2.132-27.719 4.265-38.38s8.528-21.322 12.793-29.851c6.397-8.529 14.925-14.926 25.587-19.19 10.66-4.265 23.454-6.397 36.247-6.397 25.587 0 44.777 6.397 59.703 21.322 12.793 14.926 19.19 34.116 19.19 59.703 0 8.529 0 17.057-2.133 25.586-2.132 8.53-4.264 14.926-8.529 23.455-4.264 8.529-6.396 14.925-10.66 19.19-4.265 8.529-10.662 17.058-14.926 23.454 0 0 0 2.132-2.132 2.132l-63.967 98.083h91.685v42.644H518.397zm277.189 0v-76.76H703.9V488.28l76.76-185.503h61.835v191.9h31.983v44.776h-31.983v76.76l-46.91-2.132zm-44.777-121.537h44.777V360.346l-44.777 132.197z" fill="#FFF"/></svg>